<svg xmlns="http://www.w3.org/2000/svg" width="72" height="44" viewBox="0 0 72 44"><rect x="6" y="36" width="3" height="7" rx="0" fill="#8a6951"/><rect x="63" y="36" width="3" height="7" rx="0" fill="#8a6951"/><rect x="2" y="3" width="68" height="35" rx="2" fill="#243b3938"/><rect x="1" y="1" width="68" height="34" rx="2" fill="#8a6951"/><rect x="3" y="3" width="64" height="30" rx="1" fill="#eee9da"/><rect x="4" y="4" width="62" height="3" rx="0" fill="#7c9e72"/><path d="M15 16L57 16" stroke="#758480" stroke-width="1" fill="none"/><path d="M36 16L36 27" stroke="#758480" stroke-width="1" fill="none"/><rect x="7" y="11" width="16" height="8" rx="2" fill="#7c9e72"/><rect x="49" y="11" width="16" height="8" rx="2" fill="#cca868"/><rect x="28" y="24" width="16" height="7" rx="2" fill="#90a69b"/><rect x="2" y="34" width="66" height="2" rx="0" fill="#ecd4ac"/></svg>
