<svg xmlns="http://www.w3.org/2000/svg" width="72" height="44" viewBox="0 0 72 44"><rect x="6" y="36" width="3" height="7" rx="0" fill="#8a6951"/><rect x="63" y="36" width="3" height="7" rx="0" fill="#8a6951"/><rect x="2" y="3" width="68" height="35" rx="2" fill="#243b3938"/><rect x="1" y="1" width="68" height="34" rx="2" fill="#8a6951"/><rect x="3" y="3" width="64" height="30" rx="1" fill="#eee9da"/><rect x="4" y="4" width="62" height="3" rx="0" fill="#619d9b"/><rect x="7" y="10" width="56" height="20" rx="0" fill="#c1c9b8"/><rect x="30.24" y="10" width="11.52" height="20" rx="0" fill="#eee9da"/><rect x="9" y="12" width="16.560000000000002" height="7" rx="0" fill="#619d9b"/><rect x="48.6" y="12" width="16.560000000000002" height="7" rx="0" fill="#b87d81"/><rect x="9" y="22" width="16.560000000000002" height="7" rx="0" fill="#7c9e72"/><rect x="48.6" y="22" width="16.560000000000002" height="7" rx="0" fill="#9583b6"/><rect x="2" y="34" width="66" height="2" rx="0" fill="#ecd4ac"/></svg>
