<svg xmlns="http://www.w3.org/2000/svg" width="64" height="36" viewBox="0 0 64 36"><rect x="3" y="29" width="58" height="6" rx="3" fill="#243b3938"/><rect x="4" y="24" width="4" height="9" rx="2" fill="#344849"/><rect x="56" y="24" width="4" height="9" rx="2" fill="#344849"/><rect x="2" y="12" width="60" height="16" rx="2" fill="#8a6951"/><rect x="2" y="10" width="60" height="14" rx="2" fill="#c99d72"/><rect x="4" y="11" width="56" height="2" rx="2" fill="#ecd4ac"/><rect x="5" y="12" width="25.6" height="16" rx="2" fill="#344849"/><rect x="8" y="15" width="19.6" height="2" rx="2" fill="#58706c"/><rect x="16.52" y="27" width="3" height="6" rx="2" fill="#344849"/><rect x="33.92" y="12" width="25.6" height="16" rx="2" fill="#344849"/><rect x="36.92" y="15" width="19.6" height="2" rx="2" fill="#58706c"/><rect x="45.44" y="27" width="3" height="6" rx="2" fill="#344849"/></svg>
